REM MD5 0f5ad2afe8818d6111afe2d7dfad5859
FILE "Pachi-Slot Kanzen Kouryaku - Takasago Super Project 2 (Japan).bin" BINARY
  TRACK 01 MODE2/2352
    INDEX 01 00:00:00
  TRACK 02 AUDIO
    INDEX 00 19:38:07
    INDEX 01 19:40:07
  TRACK 03 AUDIO
    INDEX 00 20:50:68
    INDEX 01 20:52:68
  TRACK 04 AUDIO
    INDEX 00 22:12:52
    INDEX 01 22:14:52
  TRACK 05 AUDIO
    INDEX 00 23:26:69
    INDEX 01 23:28:69
REM LEADOUT 26:29:10
